<svg width="42" height="42" viewBox="0 0 42 42" fill="none" xmlns="http://www.w3.org/2000/svg">
<defs>
    <linearGradient id="instagram" x1="0%" y1="0%" x2="0%" y2="100%">
      <stop offset="25%" stop-color="#f9ce34" />
      <stop offset="50%" stop-color="#ee2a7b" />
      <stop offset="75%" stop-color="#6228d7" />
    </linearGradient>
  </defs>
<circle cx="21.3915" cy="21.0184" r="19.747" stroke="#D4D4D8" stroke-width="1.46274" fill="url(#instagram)"/>
<path d="M21.3923 12.8958C24.038 12.8958 24.3513 12.9057 25.3964 12.9534C26.0248 12.9611 26.6473 13.0765 27.2367 13.2946C27.6641 13.4594 28.0522 13.7119 28.3762 14.0358C28.7001 14.3598 28.9526 14.7479 29.1175 15.1754C29.3355 15.7648 29.4509 16.3872 29.4586 17.0156C29.5058 18.0607 29.5162 18.374 29.5162 21.0197C29.5162 23.6654 29.5063 23.9787 29.4586 25.0239C29.4509 25.6522 29.3355 26.2747 29.1175 26.8641C28.9526 27.2915 28.7001 27.6797 28.3762 28.0036C28.0522 28.3275 27.6641 28.58 27.2367 28.7449C26.6473 28.9629 26.0248 29.0783 25.3964 29.086C24.3517 29.1332 24.0384 29.1436 21.3923 29.1436C18.7461 29.1436 18.4328 29.1337 17.3882 29.086C16.7598 29.0783 16.1373 28.9629 15.5479 28.7449C15.1205 28.58 14.7323 28.3275 14.4084 28.0036C14.0845 27.6797 13.832 27.2915 13.6671 26.8641C13.4491 26.2747 13.3337 25.6522 13.326 25.0239C13.2788 23.9787 13.2684 23.6654 13.2684 21.0197C13.2684 18.374 13.2783 18.0607 13.326 17.0156C13.3337 16.3872 13.4491 15.7648 13.6671 15.1754C13.832 14.7479 14.0845 14.3598 14.4084 14.0358C14.7323 13.7119 15.1205 13.4594 15.5479 13.2946C16.1373 13.0765 16.7598 12.9611 17.3882 12.9534C18.4333 12.9062 18.7466 12.8958 21.3923 12.8958ZM21.3923 11.1104C18.7027 11.1104 18.3639 11.1217 17.307 11.1698C16.4846 11.1862 15.6709 11.3419 14.9006 11.6303C14.2397 11.8793 13.6412 12.2695 13.1467 12.7736C12.6421 13.2683 12.2516 13.8672 12.0024 14.5284C11.714 15.2988 11.5583 16.1125 11.5419 16.9349C11.4947 17.9909 11.4834 18.3297 11.4834 21.0192C11.4834 23.7088 11.4947 24.0476 11.5429 25.1045C11.5592 25.927 11.7149 26.7406 12.0034 27.511C12.2522 28.1721 12.6424 28.771 13.1467 29.2658C13.6414 29.7701 14.2403 30.1602 14.9015 30.4091C15.6718 30.6975 16.4855 30.8533 17.3079 30.8696C18.3649 30.9168 18.7023 30.9291 21.3932 30.9291C24.0842 30.9291 24.4216 30.9178 25.4785 30.8696C26.3009 30.8533 27.1146 30.6975 27.885 30.4091C28.543 30.154 29.1406 29.7644 29.6394 29.2652C30.1383 28.7661 30.5275 28.1682 30.7821 27.51C31.0706 26.7397 31.2263 25.926 31.2427 25.1036C31.2899 24.0476 31.3012 23.7088 31.3012 21.0192C31.3012 18.3297 31.2899 17.9909 31.2417 16.9339C31.2254 16.1115 31.0697 15.2978 30.7812 14.5275C30.5323 13.8663 30.1422 13.2675 29.6379 12.7727C29.1431 12.2684 28.5443 11.8782 27.8831 11.6294C27.1127 11.3409 26.2991 11.1852 25.4766 11.1689C24.4206 11.1217 24.0818 11.1104 21.3923 11.1104Z" fill="#ffffff"/>
<path d="M21.3941 15.9331C20.3877 15.9331 19.4039 16.2315 18.5671 16.7907C17.7303 17.3498 17.0781 18.1445 16.693 19.0743C16.3079 20.0041 16.2071 21.0272 16.4034 22.0143C16.5998 23.0013 17.0844 23.908 17.796 24.6196C18.5077 25.3313 19.4143 25.8159 20.4014 26.0122C21.3885 26.2086 22.4116 26.1078 23.3414 25.7227C24.2712 25.3375 25.0659 24.6853 25.625 23.8485C26.1841 23.0118 26.4826 22.028 26.4826 21.0216C26.4826 19.672 25.9465 18.3777 24.9922 17.4235C24.0379 16.4692 22.7437 15.9331 21.3941 15.9331ZM21.3941 24.3245C20.7409 24.3245 20.1023 24.1308 19.5591 23.7679C19.0159 23.4049 18.5926 22.8891 18.3426 22.2855C18.0926 21.682 18.0272 21.0179 18.1546 20.3772C18.2821 19.7365 18.5966 19.1479 19.0586 18.686C19.5205 18.2241 20.109 17.9095 20.7497 17.7821C21.3905 17.6546 22.0546 17.72 22.6581 17.97C23.2616 18.22 23.7775 18.6434 24.1404 19.1865C24.5034 19.7297 24.6971 20.3683 24.6971 21.0216C24.6971 21.8976 24.3491 22.7377 23.7297 23.3571C23.1102 23.9765 22.2701 24.3245 21.3941 24.3245Z" fill="#ffffff"/>
<path d="M26.6832 16.9201C27.3399 16.9201 27.8723 16.3878 27.8723 15.7311C27.8723 15.0744 27.3399 14.542 26.6832 14.542C26.0265 14.542 25.4941 15.0744 25.4941 15.7311C25.4941 16.3878 26.0265 16.9201 26.6832 16.9201Z" fill="#ffffff"/>
</svg>
