<svg width="42" height="42" viewBox="0 0 42 42" fill="#0A66C2" xmlns="http://www.w3.org/2000/svg">
<g clip-path="url(#clip0_276_1135)" fill="#0A66C2">
<path d="M25.8055 15.8386C24.9376 15.8386 24.2951 16.0575 23.792 16.334C23.7114 16.0473 23.4464 15.8373 23.1341 15.9001H19.3146C18.937 15.8373 18.6311 16.1433 18.7475 16.5401V30.6201C18.6311 30.9785 18.937 31.2857 19.3146 31.2601H23.1341C23.5117 31.2857 23.8176 30.9785 23.8176 30.6009L23.8163 22.0914C23.8151 22.0876 23.801 21.6805 24.0583 21.4002C24.2643 21.1775 24.6189 21.0636 25.1091 21.0636C25.9258 21.0636 26.2893 21.3977 26.425 22.1452V30.6009C26.2906 30.9785 26.5965 31.2857 26.9741 31.2601H30.9997C31.3773 31.2857 31.6832 30.9785 31.5475 30.6009V21.861C31.6819 17.4169 28.5165 15.8386 25.8055 15.8386ZM30.3149 29.9801H27.6576V22.1452C27.6576 20.6335 26.681 19.6965 25.1104 19.6965C24.2221 19.6965 23.5309 19.9577 23.0547 20.4722C22.393 21.189 22.4442 22.0978 22.5863 22.3001V29.9801H19.9981V17.2057H22.4506V17.6357C22.4496 17.7639 22.4847 17.8897 22.552 17.9987C22.6193 18.1077 22.716 18.1956 22.831 18.2521C22.9459 18.3087 23.0745 18.3316 23.202 18.3184C23.3294 18.3051 23.4505 18.2562 23.5514 18.1772L23.7306 18.0389C24.249 17.6306 24.7853 17.2069 25.8067 17.2069C26.864 17.2069 30.3162 17.5436 30.3162 21.8623L30.3149 29.9801ZM14.9063 9.45654C13.4701 9.45654 12.3027 10.6239 12.3027 12.0601C12.3027 13.4962 13.4701 14.6636 14.9063 14.6636C16.3424 14.6636 17.5098 13.4962 17.5098 12.0601C17.5098 10.6239 16.3424 9.45654 14.9063 9.45654ZM14.9063 13.2965C14.2253 13.2965 13.6698 12.741 13.6698 12.0601C13.6698 11.3791 14.2253 10.8236 14.9063 10.8236C15.5872 10.8236 16.1427 11.3791 16.1427 12.0601C16.1427 12.741 15.5872 13.2965 14.9063 13.2965ZM16.7341 15.8373H12.9351C12.5575 15.8373 12.2515 16.1433 12.3463 16.5401V30.6201C12.2515 30.9785 12.5575 31.2857 12.9351 31.2601H16.7341C17.1117 31.2857 17.4176 30.9785 17.4176 30.6009V16.5209C17.4176 16.3396 17.3456 16.1657 17.2174 16.0375C17.0892 15.9094 16.9154 15.8373 16.7341 15.8373ZM16.1863 29.9801H13.6186V17.2057H16.1863V29.9801Z" fill="white"/>
<path d="M21.3067 0.496582C9.98896 0.496582 0.783203 9.70234 0.783203 21.0201C0.783203 32.3379 9.98896 41.5436 21.3067 41.5436C32.6245 41.5436 41.8302 32.3379 41.8302 21.0201C41.8302 9.70234 32.6245 0.496582 21.3067 0.496582ZM21.3067 40.1766C10.7442 40.1766 2.15024 31.5827 2.15024 21.0201C2.15024 10.4575 10.7442 1.86362 21.3067 1.86362C31.8693 1.86362 40.4632 10.4575 40.4632 21.0201C40.4632 31.5827 31.8693 40.1766 21.3067 40.1766Z" fill="white"/>
</g>
<defs fill="#0A66C2">
<clipPath id="clip0_276_1135" fill="#0A66C2">
<rect width="40.96" height="40.96" fill="#0A66C2" transform="translate(0.827148 0.540039)"/>
</clipPath>
</defs>
</svg>
