<svg width="41" height="42" viewBox="0 0 41 42" fill="none" xmlns="http://www.w3.org/2000/svg">
<circle cx="20.4784" cy="21.0184" r="19.747" stroke="#D4D4D8" stroke-width="1.46274" fill="#1aa7ec"/>
<path d="M29.5575 16.6055C28.9445 16.878 28.2976 17.0482 27.6165 17.1504C28.2976 16.7417 28.8424 16.0948 29.0807 15.3116C28.4338 15.6862 27.7187 15.9586 26.9355 16.1288C26.3226 15.4819 25.4373 15.0732 24.4838 15.0732C22.6451 15.0732 21.1468 16.5715 21.1468 18.4103C21.1468 18.6827 21.1809 18.921 21.249 19.1594C18.4908 19.0232 16.0051 17.6952 14.3366 15.6521C14.0642 16.1629 13.8939 16.7077 13.8939 17.3206C13.8939 18.4784 14.4728 19.4999 15.3922 20.1128C14.8473 20.0788 14.3366 19.9426 13.8599 19.7042V19.7383C13.8599 21.3727 15.0176 22.7348 16.5499 23.0412C16.2775 23.1093 15.971 23.1434 15.6646 23.1434C15.4603 23.1434 15.2219 23.1093 15.0176 23.0753C15.4603 24.4033 16.6861 25.3907 18.1503 25.3907C16.9926 26.2761 15.5624 26.8209 13.9961 26.8209C13.7237 26.8209 13.4512 26.8209 13.2129 26.7868C14.7111 27.7403 16.4478 28.2851 18.3546 28.2851C24.5179 28.2851 27.8889 23.1774 27.8889 18.7508C27.8889 18.6146 27.8889 18.4443 27.8889 18.3081C28.5359 17.8654 29.1148 17.2866 29.5575 16.6055Z" fill="#ffffff"/>
</svg>
